<svg xmlns="http://www.w3.org/2000/svg" xmlns:xlink="http://www.w3.org/1999/xlink" width="143.094" height="42.928" viewBox="0 0 143.094 42.928">
  <defs>
    <clipPath id="clip-path">
      <path id="path16" d="M0-340.156H143.094v42.928H0Z" transform="translate(0 340.156)"/>
    </clipPath>
  </defs>
  <g id="g10" transform="translate(0 340.156)">
    <g id="g12" transform="translate(0 -340.156)">
      <g id="g14" transform="translate(0 0)" clip-path="url(#clip-path)">
        <g id="g24" transform="translate(0.925 0.927)">
          <path id="path26" d="M-55.538-284.392c-.323,0-.638,0-.958-.011a13.436,13.436,0,0,1-1.98-.173,6.235,6.235,0,0,1-1.755-.581,5.726,5.726,0,0,1-1.48-1.077,5.637,5.637,0,0,1-1.081-1.479,6.057,6.057,0,0,1-.575-1.755,13.162,13.162,0,0,1-.176-1.986c-.007-.223-.015-.967-.015-.967v-25.025s.009-.732.015-.948a13.114,13.114,0,0,1,.175-1.983,6.093,6.093,0,0,1,.576-1.761,5.7,5.7,0,0,1,1.075-1.481,5.893,5.893,0,0,1,1.485-1.083,6.171,6.171,0,0,1,1.752-.576,13.341,13.341,0,0,1,1.987-.174l.956-.013h125.2l.967.013a13.154,13.154,0,0,1,1.969.172,6.287,6.287,0,0,1,1.77.581,5.846,5.846,0,0,1,1.474,1.076,5.9,5.9,0,0,1,1.084,1.488,6.1,6.1,0,0,1,.567,1.747,13.75,13.75,0,0,1,.184,2c0,.3,0,.622,0,.943.008.4.008.775.008,1.157v22.724c0,.385,0,.76-.008,1.139,0,.345,0,.66,0,.985a13.481,13.481,0,0,1-.181,1.964,6.08,6.08,0,0,1-.572,1.769,5.811,5.811,0,0,1-1.076,1.468,5.731,5.731,0,0,1-1.482,1.083,6.216,6.216,0,0,1-1.767.583,13.284,13.284,0,0,1-1.98.173c-.31.007-.635.011-.951.011l-1.148,0Z" transform="translate(63.56 325.466)"/>
        </g>
        <g id="g28" transform="translate(44.706 19.929)">
          <path id="path30" d="M-27.862-51.218h3.707l-1.327-3.553q-.274-.736-.539-1.626-.24.788-.522,1.609Zm4.34,1.687h-4.966L-29.7-46.21h-2.183l4.863-12.406h2.063l4.974,12.406H-22.28Z" transform="translate(31.887 58.616)" fill="#fff"/>
        </g>
        <g id="g32" transform="translate(57.524 22.926)">
          <path id="path34" d="M-38.975-49.529a4.212,4.212,0,0,0,.646-2.538,3.723,3.723,0,0,0-.535-2.248,1.706,1.706,0,0,0-1.425-.7,2.3,2.3,0,0,0-1.139.291,4.282,4.282,0,0,0-.993.779v4.949a3.214,3.214,0,0,0,.736.244,3.967,3.967,0,0,0,.831.09,2.2,2.2,0,0,0,1.879-.869m-5.561-4.722q0-1.028-.068-2.261h1.986a9.992,9.992,0,0,1,.154,1.173,3.742,3.742,0,0,1,2.825-1.344,3.3,3.3,0,0,1,1.712.467,3.313,3.313,0,0,1,1.272,1.473,5.9,5.9,0,0,1,.484,2.556,6.327,6.327,0,0,1-.553,2.766,3.951,3.951,0,0,1-1.545,1.738,4.4,4.4,0,0,1-2.295.591,5.652,5.652,0,0,1-1.858-.317v3.819l-2.115.18Z" transform="translate(44.604 56.683)" fill="#fff"/>
        </g>
        <g id="g36" transform="translate(67.242 22.926)">
          <path id="path38" d="M-38.975-49.529a4.211,4.211,0,0,0,.646-2.538,3.723,3.723,0,0,0-.535-2.248,1.706,1.706,0,0,0-1.425-.7,2.3,2.3,0,0,0-1.139.291,4.282,4.282,0,0,0-.993.779v4.949a3.211,3.211,0,0,0,.736.244,3.965,3.965,0,0,0,.831.09,2.2,2.2,0,0,0,1.879-.869m-5.561-4.722q0-1.028-.068-2.261h1.986a9.956,9.956,0,0,1,.154,1.173,3.742,3.742,0,0,1,2.826-1.344,3.3,3.3,0,0,1,1.712.467,3.312,3.312,0,0,1,1.272,1.473,5.9,5.9,0,0,1,.484,2.556,6.327,6.327,0,0,1-.553,2.766,3.95,3.95,0,0,1-1.545,1.738,4.4,4.4,0,0,1-2.294.591,5.652,5.652,0,0,1-1.858-.317v3.819l-2.115.18Z" transform="translate(44.604 56.683)" fill="#fff"/>
        </g>
        <g id="g40" transform="translate(76.823 19.767)">
          <path id="path42" d="M-19.68-82.962a5.135,5.135,0,0,1-2.107-2.17,7.135,7.135,0,0,1-.736-3.339,6.959,6.959,0,0,1,.847-3.549,5.455,5.455,0,0,1,2.308-2.192,7.2,7.2,0,0,1,3.275-.732,8.631,8.631,0,0,1,2.042.236,8.848,8.848,0,0,1,1.811.646l-.539,1.627A7.486,7.486,0,0,0-16-93.24a4.505,4.505,0,0,0-2.265.552,3.754,3.754,0,0,0-1.511,1.623,5.7,5.7,0,0,0-.539,2.586,6.248,6.248,0,0,0,.415,2.354,3.478,3.478,0,0,0,1.31,1.627,3.969,3.969,0,0,0,2.256.6A7.449,7.449,0,0,0-15.1-84a6.42,6.42,0,0,0,1.156-.3V-86.81h-2.868v-1.644h4.923v5.223a11.019,11.019,0,0,1-2.23.762,10.47,10.47,0,0,1-2.325.265,6.581,6.581,0,0,1-3.236-.758" transform="translate(22.523 94.944)" fill="#fff"/>
        </g>
        <g id="g44" transform="translate(89.015 22.926)">
          <path id="path46" d="M-33.2-53.292a3.374,3.374,0,0,0,1.079-.788v-1.712a13.631,13.631,0,0,0-1.413-.094,2.876,2.876,0,0,0-1.811.424,1.42,1.42,0,0,0-.5,1.143,1.3,1.3,0,0,0,.363,1.015,1.42,1.42,0,0,0,.989.33,2.969,2.969,0,0,0,1.293-.317m1.267,1.712a8.129,8.129,0,0,1-.145-1.224,4.074,4.074,0,0,1-1.272.989,3.775,3.775,0,0,1-1.767.407,3.332,3.332,0,0,1-1.451-.312,2.421,2.421,0,0,1-1.04-.942,2.889,2.889,0,0,1-.385-1.537,2.641,2.641,0,0,1,.968-2.145,5.092,5.092,0,0,1,3.227-.8,11.724,11.724,0,0,1,1.678.12v-.18a2.329,2.329,0,0,0-.522-1.725,2.08,2.08,0,0,0-1.5-.5,5.857,5.857,0,0,0-1.447.2,7.623,7.623,0,0,0-1.353.471l-.334-1.541a8.13,8.13,0,0,1,1.49-.471,8.65,8.65,0,0,1,1.952-.214,5.111,5.111,0,0,1,2.038.364,2.673,2.673,0,0,1,1.31,1.25,5.1,5.1,0,0,1,.471,2.385v3.673q0,.573.068,1.738Z" transform="translate(37.991 60.989)" fill="#fff"/>
        </g>
        <g id="g48" transform="translate(98.845 19.03)">
          <path id="path50" d="M0-76.767V-87.683l2.106-.171v10.711a1.328,1.328,0,0,0,.2.834.78.78,0,0,0,.638.244,2.382,2.382,0,0,0,.556-.094l.249,1.516a3.619,3.619,0,0,1-.732.193,4.95,4.95,0,0,1-.818.072q-2.2,0-2.2-2.389" transform="translate(0 87.854)" fill="#fff"/>
        </g>
        <g id="g52" transform="translate(104.11 19.03)">
          <path id="path54" d="M0-76.767V-87.683l2.106-.171v10.711a1.328,1.328,0,0,0,.2.834.78.78,0,0,0,.638.244,2.382,2.382,0,0,0,.556-.094l.249,1.516a3.617,3.617,0,0,1-.732.193,4.954,4.954,0,0,1-.818.072q-2.2,0-2.2-2.389" transform="translate(0 87.854)" fill="#fff"/>
        </g>
        <g id="g56" transform="translate(108.452 22.926)">
          <path id="path58" d="M-42.324-25.728a2.63,2.63,0,0,0-.556-1.657,1.7,1.7,0,0,0-1.327-.552,1.782,1.782,0,0,0-1.34.556,2.955,2.955,0,0,0-.7,1.652Zm2.063,1.344h-6.045q.146,2.9,2.765,2.9a5.865,5.865,0,0,0,1.332-.158,7.925,7.925,0,0,0,1.306-.424l.462,1.447a7.867,7.867,0,0,1-3.485.753,5.088,5.088,0,0,1-2.483-.556,3.578,3.578,0,0,1-1.52-1.6,5.7,5.7,0,0,1-.509-2.517,5.95,5.95,0,0,1,.539-2.637,3.923,3.923,0,0,1,1.5-1.687,4.2,4.2,0,0,1,2.221-.582,3.734,3.734,0,0,1,2.188.612,3.662,3.662,0,0,1,1.3,1.631,5.806,5.806,0,0,1,.423,2.251Z" transform="translate(48.437 29.444)" fill="#fff"/>
        </g>
        <g id="g60" transform="translate(118.264 22.926)">
          <path id="path62" d="M-.473-17.251q0-.762-.068-2.32H1.436q.052.385.1.92c.031.357.053.646.064.869A7.762,7.762,0,0,1,2.322-18.8a2.959,2.959,0,0,1,.831-.676,2.206,2.206,0,0,1,1.082-.261,3.011,3.011,0,0,1,.84.1L4.81-17.808a2.341,2.341,0,0,0-.685-.094,2.25,2.25,0,0,0-1.3.381,5.233,5.233,0,0,0-1.189,1.254v5.933H-.473Z" transform="translate(0.541 19.743)" fill="#fff"/>
        </g>
        <g id="g64" transform="translate(124.387 23.097)">
          <path id="path66" d="M-5.277-90.137a5.135,5.135,0,0,1-.762-.184l.385-1.541c.142.04.323.078.539.116a3.688,3.688,0,0,0,.616.056q1.4,0,2.106-1.807l.137-.342-3.407-9.315h2.268l1.713,5.206A16.793,16.793,0,0,1-1.141-95.9q.24-1,.565-2l1.738-5.248H3.293L-.105-93.8a9.6,9.6,0,0,1-1.036,2.141A3.629,3.629,0,0,1-2.455-90.45a3.925,3.925,0,0,1-1.828.394,5.735,5.735,0,0,1-.993-.081" transform="translate(6.039 103.156)" fill="#fff"/>
        </g>
        <g id="g68" transform="translate(9.375 7.81)">
          <path id="path70" d="M-135.886,0h-11.942c-5.626,0-7.683,2.058-7.683,7.683V19.626c0,5.625,2.058,7.683,7.683,7.683h11.939c5.626,0,7.687-2.058,7.687-7.683V7.683C-128.2,2.058-130.26,0-135.886,0" transform="translate(155.512 0)" fill="#c8102e" fill-rule="evenodd"/>
        </g>
        <g id="g72" transform="translate(12.423 21.466)">
          <path id="path74" d="M-61.391-15.1h1.1l-.549-1.278Zm-.27.644-.325.743h-.74l1.573-3.568h.639l1.567,3.568h-.76l-.321-.743Zm11.9.741h.715v-3.566h-.715ZM-52.6-15.251h1.318v-.65H-52.6v-.731h1.913v-.651h-2.627v3.566h2.7v-.65H-52.6Zm-2.84.421-.811-2.455h-.591l-.811,2.455-.789-2.454h-.771l1.245,3.569h.6l.812-2.344.812,2.344h.6l1.241-3.569h-.751Zm-8.372-.411c0,.58-.288.891-.812.891s-.816-.319-.816-.916v-2.017h-.725v2.042a1.416,1.416,0,0,0,1.531,1.58,1.437,1.437,0,0,0,1.546-1.61v-2.014h-.724ZM-67.9-17.285h.724v3.57H-67.9v-1.45h-1.636v1.45h-.725v-3.57h.725v1.44H-67.9Z" transform="translate(70.257 17.285)" fill="#fff"/>
        </g>
        <g id="g76" transform="translate(18.484 12.375)">
          <path id="path78" d="M-31.474-31.474A4.551,4.551,0,0,1-36.02-36.02h.642a3.908,3.908,0,0,0,3.9,3.9,3.908,3.908,0,0,0,3.9-3.9h.642a4.551,4.551,0,0,1-4.546,4.546" transform="translate(36.02 36.02)" fill="#fff"/>
        </g>
        <g id="g80" transform="translate(44.492 9.314)">
          <path id="path82" d="M-28.525-35.679a1.8,1.8,0,0,0,.663-.82,3.051,3.051,0,0,0,.22-1.194,3.313,3.313,0,0,0-.194-1.175,1.742,1.742,0,0,0-.621-.822,1.84,1.84,0,0,0-1.1-.306,1.866,1.866,0,0,0-1.09.31,1.9,1.9,0,0,0-.672.833,2.89,2.89,0,0,0-.224,1.151,3.153,3.153,0,0,0,.211,1.187,1.807,1.807,0,0,0,.646.828,1.834,1.834,0,0,0,1.077.3,1.9,1.9,0,0,0,1.082-.3m-2.738.75a2.56,2.56,0,0,1-1.027-1.08,3.508,3.508,0,0,1-.355-1.616,3.607,3.607,0,0,1,.378-1.692,2.661,2.661,0,0,1,1.09-1.12,3.407,3.407,0,0,1,1.68-.4,3.153,3.153,0,0,1,1.593.382,2.527,2.527,0,0,1,1.018,1.075,3.509,3.509,0,0,1,.351,1.606,3.627,3.627,0,0,1-.382,1.711,2.678,2.678,0,0,1-1.09,1.12,3.371,3.371,0,0,1-1.663.393,3.154,3.154,0,0,1-1.593-.384" transform="translate(32.645 40.832)" fill="#fff"/>
        </g>
        <g id="g84" transform="translate(50.847 9.398)">
          <path id="path86" d="M-13.136-6.114h-1.9L-14.94-7h4.762l-.1.883h-1.8V-.879h-1.056Z" transform="translate(15.033 6.997)" fill="#fff"/>
        </g>
        <g id="g88" transform="translate(56.598 9.314)">
          <path id="path90" d="M-33.177-42.949h-1.192l-1.821-2.7h-.723v2.7h-1.056v-6.118h1.056v2.527h.554l1.268-1.834a2.119,2.119,0,0,1,.56-.594,1.267,1.267,0,0,1,.708-.184,1.612,1.612,0,0,1,.634.118l-.22.824a.863.863,0,0,0-.33-.072.543.543,0,0,0-.319.093,1.189,1.189,0,0,0-.277.3l-1.12,1.606Z" transform="translate(37.969 49.152)" fill="#fff"/>
        </g>
        <g id="g92" transform="translate(62.197 9.398)">
          <path id="path94" d="M-18.344-18.914a1.106,1.106,0,0,0,.338-.864.938.938,0,0,0-.344-.815,1.716,1.716,0,0,0-1.012-.249h-.575v2.172a4.181,4.181,0,0,0,.608.063,1.419,1.419,0,0,0,.985-.306m-2.649-2.732h1.648a2.878,2.878,0,0,1,1.779.473,1.621,1.621,0,0,1,.617,1.369,2,2,0,0,1-.277,1.063,1.823,1.823,0,0,1-.771.7,2.545,2.545,0,0,1-1.137.243,4.423,4.423,0,0,1-.8-.084v2.358h-1.056Z" transform="translate(20.993 21.645)" fill="#fff"/>
        </g>
        <g id="g96" transform="translate(66.891 9.314)">
          <path id="path98" d="M-28.525-35.679a1.8,1.8,0,0,0,.663-.82,3.051,3.051,0,0,0,.22-1.194,3.313,3.313,0,0,0-.195-1.175,1.743,1.743,0,0,0-.621-.822,1.84,1.84,0,0,0-1.1-.306,1.866,1.866,0,0,0-1.09.31,1.9,1.9,0,0,0-.672.833,2.89,2.89,0,0,0-.224,1.151,3.153,3.153,0,0,0,.211,1.187,1.807,1.807,0,0,0,.646.828,1.834,1.834,0,0,0,1.077.3,1.9,1.9,0,0,0,1.082-.3m-2.738.75a2.56,2.56,0,0,1-1.027-1.08,3.508,3.508,0,0,1-.355-1.616,3.607,3.607,0,0,1,.378-1.692,2.661,2.661,0,0,1,1.09-1.12,3.407,3.407,0,0,1,1.68-.4,3.153,3.153,0,0,1,1.593.382,2.528,2.528,0,0,1,1.019,1.075,3.513,3.513,0,0,1,.351,1.606,3.627,3.627,0,0,1-.382,1.711,2.678,2.678,0,0,1-1.09,1.12,3.371,3.371,0,0,1-1.663.393,3.154,3.154,0,0,1-1.593-.384" transform="translate(32.645 40.832)" fill="#fff"/>
        </g>
        <g id="g100" transform="translate(74.18 7.81)">
          <path id="path102" d="M-12.58-7.314a1.309,1.309,0,0,1-.509-.456,1.524,1.524,0,0,1-.222-.6h.761a.734.734,0,0,0,.794.676.739.739,0,0,0,.8-.676h.765a1.529,1.529,0,0,1-.222.6,1.307,1.307,0,0,1-.511.456,1.762,1.762,0,0,1-.83.178,1.739,1.739,0,0,1-.824-.178M-10.2-.663V-4.027q0-.634.046-1.454L-13.222-.663H-14.4V-6.782h.98v3.494q0,.57-.038,1.247l3.025-4.741h1.213V-.663Z" transform="translate(14.397 8.371)" fill="#fff"/>
        </g>
        <g id="g104" transform="translate(80.257 9.398)">
          <path id="path106" d="M-13.136-6.114h-1.9L-14.94-7h4.762l-.1.883h-1.8V-.879h-1.056Z" transform="translate(15.033 6.997)" fill="#fff"/>
        </g>
        <g id="g108" transform="translate(86.007 9.398)">
          <path id="path110" d="M0,0H3.6L3.5.87H1.056V2.556H3.364v.816H1.056V5.24H3.634l-.089.879H0Z" fill="#fff"/>
        </g>
        <g id="g112" transform="translate(93.533 9.398)">
          <path id="path114" d="M-19.411-35.122a.909.909,0,0,0,.323-.746.91.91,0,0,0-.357-.778,1.7,1.7,0,0,0-1.029-.266h-.71v2.054h.794a1.524,1.524,0,0,0,.978-.264m-1.773-2.571h.659a1.24,1.24,0,0,0,.581-.131.96.96,0,0,0,.387-.353.921.921,0,0,0,.135-.488.635.635,0,0,0-.273-.562,1.394,1.394,0,0,0-.788-.186h-.7Zm2.444.594a1.47,1.47,0,0,1,.516.528,1.513,1.513,0,0,1,.188.767,1.611,1.611,0,0,1-.256.9,1.671,1.671,0,0,1-.748.608,2.909,2.909,0,0,1-1.181.218h-1.994v-6.118h1.91a2.362,2.362,0,0,1,1.458.376,1.233,1.233,0,0,1,.486,1.031,1.358,1.358,0,0,1-.31.911,1.65,1.65,0,0,1-.813.513,1.979,1.979,0,0,1,.746.264" transform="translate(22.215 40.195)" fill="#fff"/>
        </g>
      </g>
    </g>
  </g>
</svg>
