<svg xmlns="http://www.w3.org/2000/svg" xmlns:xlink="http://www.w3.org/1999/xlink" width="237.348" height="99" viewBox="0 0 237.348 99">
  <defs>
    <filter id="Прямоугольник_6623" x="0" y="0" width="99" height="99" filterUnits="userSpaceOnUse">
      <feOffset input="SourceAlpha"/>
      <feGaussianBlur stdDeviation="8" result="blur"/>
      <feFlood flood-opacity="0.102"/>
      <feComposite operator="in" in2="blur"/>
      <feComposite in="SourceGraphic"/>
    </filter>
  </defs>
  <g id="Сгруппировать_18702" data-name="Сгруппировать 18702" transform="translate(-116 -40)">
    <g id="Сгруппировать_13209" data-name="Сгруппировать 13209" transform="translate(201.035 73.574)">
      <path id="Контур_20388" data-name="Контур 20388" d="M5062.512,1275.136a7.271,7.271,0,0,0,1.582,5.115c2.532,2.937,6.3,3.321,9.292,5.287.744.487,1.394,1.368.856,2.258-1.01,1.669-5.073.476-6.455-.168a10.812,10.812,0,0,1-2.493-1.619c-.548.494-3.486,3.512-4.423,4.467a16.006,16.006,0,0,0,9.966,4,12.187,12.187,0,0,0,8.336-2.762,7.192,7.192,0,0,0,1.167-9.245c-2.537-3.634-9.673-4.637-10.74-6.562-.582-1.046.428-2.381,2.2-2.429a11.744,11.744,0,0,1,5.615,2.04c.575-.577,3.108-3.127,3.918-3.952a11.885,11.885,0,0,0-8.25-3.753C5068.364,1267.673,5063.091,1269.931,5062.512,1275.136Z" transform="translate(-5060.872 -1263.384)" fill="#24272d" fill-rule="evenodd"/>
      <path id="Контур_20389" data-name="Контур 20389" d="M5196.878,1294.5h6.868v-15.311a4.414,4.414,0,0,1,4.4-4.4h.7v-6.936h-1.633a10.363,10.363,0,0,0-10.333,10.332Z" transform="translate(-5116.824 -1263.404)" fill="#24272d" fill-rule="evenodd"/>
      <path id="Контур_20390" data-name="Контур 20390" d="M5278.837,1260.36h6.9v4.37h5.668v7.375h-5.668v8.005a4.435,4.435,0,0,0,4.422,4.423h.7v6.967h-1.642a10.41,10.41,0,0,1-10.379-10.379v-9.015h-3.315v-7.375h3.315Z" transform="translate(-5149.178 -1260.321)" fill="#24272d" fill-rule="evenodd"/>
      <path id="Контур_20391" data-name="Контур 20391" d="M5243.718,1294.47h6.7v-11.5c-.036-.561,0-1.133,0-1.713a13.472,13.472,0,1,0-6.7,11.652v1.56Zm-6.774-6.871a6.342,6.342,0,1,1,6.341-6.341A6.342,6.342,0,0,1,5236.944,1287.6Z" transform="translate(-5127.762 -1263.373)" fill="#24272d" fill-rule="evenodd"/>
      <path id="Контур_20392" data-name="Контур 20392" d="M5115.7,1294.5a13.324,13.324,0,1,1,13.323-13.324A13.324,13.324,0,0,1,5115.7,1294.5Zm0-7.062a6.262,6.262,0,1,0-6.263-6.262A6.262,6.262,0,0,0,5115.7,1287.442Z" transform="translate(-5077.948 -1263.404)" fill="#24272d" fill-rule="evenodd"/>
      <path id="Контур_20393" data-name="Контур 20393" d="M5168.492,1291.393h7.093V1285a10.755,10.755,0,0,0-5.095-9.122,4.415,4.415,0,0,1,4.4-4.229h.7v-6.935h-1.633a10.366,10.366,0,0,0-10.3,9.551h-2.466v-13.949l-7.11-.018v26.224h7.11v-5.326h2.789a4.532,4.532,0,0,1,4.52,4.52Z" transform="translate(-5099.214 -1260.293)" fill="#24272d" fill-rule="evenodd"/>
      <circle id="Эллипс_1325" data-name="Эллипс 1325" cx="3.461" cy="3.461" r="3.461" transform="translate(145.39 24.227)" fill="#24272d"/>
    </g>
    <g id="Сгруппировать_18701" data-name="Сгруппировать 18701">
      <g transform="matrix(1, 0, 0, 1, 116, 40)" filter="url(#Прямоугольник_6623)">
        <rect id="Прямоугольник_6623-2" data-name="Прямоугольник 6623" width="51" height="51" rx="10" transform="translate(24 24)" fill="#00a7cf"/>
      </g>
      <g id="Сгруппировать_13208" data-name="Сгруппировать 13208" transform="translate(150.756 74.451)">
        <g id="Icons" transform="translate(0 0)">
          <path id="Контур_20432" data-name="Контур 20432" d="M16.237,33.017a4.987,4.987,0,0,1-4.969-4.543,4.975,4.975,0,0,1-3.623-7.846A4.131,4.131,0,0,1,8.7,12.781a4.047,4.047,0,0,1-.374-1.713A4.148,4.148,0,0,1,11.288,7.1a3.973,3.973,0,0,1-.114-.941A4.162,4.162,0,0,1,15.438,2a4.254,4.254,0,0,1,4.038,4.3v24.12a2.482,2.482,0,0,1-1.755,2.38,4.993,4.993,0,0,1-1.485.222ZM15.33,2.884A3.252,3.252,0,0,0,12.264,7.27a.443.443,0,0,1-.341.584,3.266,3.266,0,0,0-2.71,3.214A3.124,3.124,0,0,0,9.794,12.9a.443.443,0,0,1-.36.7A3.307,3.307,0,0,0,6.1,16.875,3.263,3.263,0,0,0,8.492,20a.443.443,0,0,1,.209.724A4.147,4.147,0,0,0,7.6,23.5a4.1,4.1,0,0,0,4.087,4.106.443.443,0,0,1,.443.443,4.107,4.107,0,0,0,5.322,3.9,1.6,1.6,0,0,0,1.134-1.532V6.3a3.361,3.361,0,0,0-3.175-3.412Z" transform="translate(-5.213 -1.995)" fill="#fff"/>
        </g>
        <g id="Icons-2" data-name="Icons" transform="translate(15.068 0)">
          <path id="Контур_20432-2" data-name="Контур 20432" d="M8.453,33.017a4.987,4.987,0,0,0,4.969-4.543,4.975,4.975,0,0,0,3.623-7.846,4.131,4.131,0,0,0-1.056-7.846,4.047,4.047,0,0,0,.374-1.713A4.148,4.148,0,0,0,13.4,7.1a3.973,3.973,0,0,0,.114-.941A4.162,4.162,0,0,0,9.252,2,4.254,4.254,0,0,0,5.214,6.3v24.12A2.482,2.482,0,0,0,6.969,32.8a4.993,4.993,0,0,0,1.485.222ZM9.36,2.884A3.252,3.252,0,0,1,12.426,7.27a.443.443,0,0,0,.341.584,3.266,3.266,0,0,1,2.71,3.214A3.124,3.124,0,0,1,14.9,12.9a.443.443,0,0,0,.36.7,3.307,3.307,0,0,1,3.335,3.271A3.263,3.263,0,0,1,16.2,20a.443.443,0,0,0-.209.724,4.147,4.147,0,0,1,1.1,2.778A4.1,4.1,0,0,1,13,27.605a.443.443,0,0,0-.443.443,4.107,4.107,0,0,1-5.322,3.9A1.6,1.6,0,0,1,6.1,30.416V6.3A3.361,3.361,0,0,1,9.275,2.884Z" transform="translate(-5.213 -1.995)" fill="#fff"/>
        </g>
        <circle id="Эллипс_1327" data-name="Эллипс 1327" cx="2.474" cy="2.474" r="2.474" transform="translate(7.663 1.731)" fill="#fff"/>
        <ellipse id="Эллипс_1339" data-name="Эллипс 1339" cx="2.466" cy="2.466" rx="2.466" ry="2.466" transform="translate(16.729 1.742)" fill="#fff"/>
        <ellipse id="Эллипс_1328" data-name="Эллипс 1328" cx="3.007" cy="3.007" rx="3.007" ry="3.007" transform="translate(4.673 6.404)" fill="#fff"/>
        <ellipse id="Эллипс_1337" data-name="Эллипс 1337" cx="3.013" cy="3.013" rx="3.013" ry="3.013" transform="translate(18.647 6.4)" fill="#fff"/>
        <ellipse id="Эллипс_1329" data-name="Эллипс 1329" cx="2.732" cy="2.749" rx="2.732" ry="2.749" transform="translate(1.649 12.141)" fill="#fff"/>
        <ellipse id="Эллипс_1336" data-name="Эллипс 1336" cx="2.74" cy="2.74" rx="2.74" ry="2.74" transform="translate(22.208 12.153)" fill="#fff"/>
        <ellipse id="Эллипс_1330" data-name="Эллипс 1330" cx="3.144" cy="3.144" rx="3.144" ry="3.144" transform="translate(3.024 18.464)" fill="#fff"/>
        <ellipse id="Эллипс_1340" data-name="Эллипс 1340" cx="3.15" cy="3.15" rx="3.15" ry="3.15" transform="translate(20.017 18.454)" fill="#fff"/>
        <ellipse id="Эллипс_1331" data-name="Эллипс 1331" cx="2.611" cy="2.611" rx="2.611" ry="2.611" transform="translate(7.937 24.202)" fill="#fff"/>
        <ellipse id="Эллипс_1344" data-name="Эллипс 1344" cx="2.603" cy="2.603" rx="2.603" ry="2.603" transform="translate(16.181 24.207)" fill="#fff"/>
        <ellipse id="Эллипс_1332" data-name="Эллипс 1332" cx="2.886" cy="2.886" rx="2.886" ry="2.886" transform="translate(7.388 13.242)" fill="#fff"/>
        <ellipse id="Эллипс_1338" data-name="Эллипс 1338" cx="2.877" cy="2.877" rx="2.877" ry="2.877" transform="translate(16.181 13.248)" fill="#fff"/>
        <ellipse id="Эллипс_1333" data-name="Эллипс 1333" cx="1.374" cy="1.357" rx="1.374" ry="1.357" transform="translate(10.411 10.252)" fill="#fff"/>
        <ellipse id="Эллипс_1342" data-name="Эллипс 1342" cx="1.37" cy="1.37" rx="1.37" ry="1.37" transform="translate(16.181 10.235)" fill="#fff"/>
        <ellipse id="Эллипс_1335" data-name="Эллипс 1335" cx="1.787" cy="1.77" rx="1.787" ry="1.77" transform="translate(9.587 20.114)" fill="#fff"/>
        <ellipse id="Эллипс_1341" data-name="Эллипс 1341" cx="1.781" cy="1.781" rx="1.781" ry="1.781" transform="translate(16.181 20.097)" fill="#fff"/>
        <circle id="Эллипс_1334" data-name="Эллипс 1334" cx="1.1" cy="1.1" r="1.1" transform="translate(10.686 6.679)" fill="#fff"/>
        <ellipse id="Эллипс_1343" data-name="Эллипс 1343" cx="1.096" cy="1.096" rx="1.096" ry="1.096" transform="translate(16.455 6.673)" fill="#fff"/>
      </g>
    </g>
  </g>
</svg>
